<mxfile host="Electron" agent="Mozilla/5.0 (Windows NT 10.0; Win64; x64) AppleWebKit/537.36 (KHTML, like Gecko) draw.io/28.1.2 Chrome/138.0.7204.243 Electron/37.4.0 Safari/537.36" version="28.1.2">
  <diagram name="Page-1" id="AcoLENiekasxiTHqSIOo">
    <mxGraphModel dx="983" dy="580" grid="1" gridSize="10" guides="1" tooltips="1" connect="1" arrows="1" fold="1" page="1" pageScale="1" pageWidth="827" pageHeight="1169" math="0" shadow="0">
      <root>
        <mxCell id="0" />
        <mxCell id="1" parent="0" />
        <mxCell id="MMdVLe4UEXJUQT5hQaAA-15" value="" style="rounded=0;whiteSpace=wrap;html=1;" vertex="1" parent="1">
          <mxGeometry x="160" y="120" width="640" height="20" as="geometry" />
        </mxCell>
        <mxCell id="MMdVLe4UEXJUQT5hQaAA-16" value="" style="rounded=0;whiteSpace=wrap;html=1;fillColor=#282828;" vertex="1" parent="1">
          <mxGeometry x="160" y="140" width="640" height="20" as="geometry" />
        </mxCell>
        <mxCell id="MMdVLe4UEXJUQT5hQaAA-31" value="Réception" style="rounded=0;whiteSpace=wrap;html=1;" vertex="1" parent="1">
          <mxGeometry x="50" y="120" width="110" height="20" as="geometry" />
        </mxCell>
        <mxCell id="MMdVLe4UEXJUQT5hQaAA-32" value="Contrôle qualité" style="rounded=0;whiteSpace=wrap;html=1;fillColor=#282828;" vertex="1" parent="1">
          <mxGeometry x="50" y="140" width="110" height="20" as="geometry" />
        </mxCell>
        <mxCell id="MMdVLe4UEXJUQT5hQaAA-43" value="Industrialisation" style="rounded=0;whiteSpace=wrap;html=1;" vertex="1" parent="1">
          <mxGeometry x="50" y="160" width="110" height="20" as="geometry" />
        </mxCell>
        <mxCell id="MMdVLe4UEXJUQT5hQaAA-44" value="Magasin" style="rounded=0;whiteSpace=wrap;html=1;fillColor=#282828;" vertex="1" parent="1">
          <mxGeometry x="50" y="180" width="110" height="20" as="geometry" />
        </mxCell>
        <mxCell id="MMdVLe4UEXJUQT5hQaAA-45" value="Production" style="rounded=0;whiteSpace=wrap;html=1;" vertex="1" parent="1">
          <mxGeometry x="50" y="200" width="110" height="20" as="geometry" />
        </mxCell>
        <mxCell id="MMdVLe4UEXJUQT5hQaAA-46" value="Expédition" style="rounded=0;whiteSpace=wrap;html=1;fillColor=#282828;" vertex="1" parent="1">
          <mxGeometry x="50" y="220" width="110" height="20" as="geometry" />
        </mxCell>
        <mxCell id="MMdVLe4UEXJUQT5hQaAA-56" value="" style="rounded=0;whiteSpace=wrap;html=1;fillColor=#282828;" vertex="1" parent="1">
          <mxGeometry x="160" y="180" width="640" height="20" as="geometry" />
        </mxCell>
        <mxCell id="MMdVLe4UEXJUQT5hQaAA-57" value="" style="rounded=0;whiteSpace=wrap;html=1;" vertex="1" parent="1">
          <mxGeometry x="160" y="160" width="640" height="20" as="geometry" />
        </mxCell>
        <mxCell id="MMdVLe4UEXJUQT5hQaAA-60" value="" style="rounded=0;whiteSpace=wrap;html=1;fillColor=#282828;" vertex="1" parent="1">
          <mxGeometry x="160" y="220" width="640" height="20" as="geometry" />
        </mxCell>
        <mxCell id="MMdVLe4UEXJUQT5hQaAA-61" value="" style="rounded=0;whiteSpace=wrap;html=1;" vertex="1" parent="1">
          <mxGeometry x="160" y="200" width="640" height="20" as="geometry" />
        </mxCell>
        <mxCell id="MMdVLe4UEXJUQT5hQaAA-68" value="" style="endArrow=none;html=1;rounded=0;" edge="1" parent="1">
          <mxGeometry width="50" height="50" relative="1" as="geometry">
            <mxPoint x="160" y="250" as="sourcePoint" />
            <mxPoint x="160" y="110" as="targetPoint" />
          </mxGeometry>
        </mxCell>
        <mxCell id="MMdVLe4UEXJUQT5hQaAA-69" value="" style="endArrow=none;html=1;rounded=0;" edge="1" parent="1">
          <mxGeometry width="50" height="50" relative="1" as="geometry">
            <mxPoint x="240" y="250" as="sourcePoint" />
            <mxPoint x="240" y="110" as="targetPoint" />
          </mxGeometry>
        </mxCell>
        <mxCell id="MMdVLe4UEXJUQT5hQaAA-70" value="" style="endArrow=none;html=1;rounded=0;" edge="1" parent="1">
          <mxGeometry width="50" height="50" relative="1" as="geometry">
            <mxPoint x="400" y="250" as="sourcePoint" />
            <mxPoint x="400" y="110" as="targetPoint" />
          </mxGeometry>
        </mxCell>
        <mxCell id="MMdVLe4UEXJUQT5hQaAA-71" value="" style="endArrow=none;html=1;rounded=0;" edge="1" parent="1">
          <mxGeometry width="50" height="50" relative="1" as="geometry">
            <mxPoint x="320" y="250" as="sourcePoint" />
            <mxPoint x="320" y="110" as="targetPoint" />
          </mxGeometry>
        </mxCell>
        <mxCell id="MMdVLe4UEXJUQT5hQaAA-72" value="" style="endArrow=none;html=1;rounded=0;" edge="1" parent="1">
          <mxGeometry width="50" height="50" relative="1" as="geometry">
            <mxPoint x="560" y="250" as="sourcePoint" />
            <mxPoint x="560" y="110" as="targetPoint" />
          </mxGeometry>
        </mxCell>
        <mxCell id="MMdVLe4UEXJUQT5hQaAA-73" value="" style="endArrow=none;html=1;rounded=0;" edge="1" parent="1">
          <mxGeometry width="50" height="50" relative="1" as="geometry">
            <mxPoint x="480" y="250" as="sourcePoint" />
            <mxPoint x="480" y="110" as="targetPoint" />
          </mxGeometry>
        </mxCell>
        <mxCell id="MMdVLe4UEXJUQT5hQaAA-74" value="" style="endArrow=none;html=1;rounded=0;" edge="1" parent="1">
          <mxGeometry width="50" height="50" relative="1" as="geometry">
            <mxPoint x="720" y="250" as="sourcePoint" />
            <mxPoint x="720" y="110" as="targetPoint" />
          </mxGeometry>
        </mxCell>
        <mxCell id="MMdVLe4UEXJUQT5hQaAA-75" value="" style="endArrow=none;html=1;rounded=0;" edge="1" parent="1">
          <mxGeometry width="50" height="50" relative="1" as="geometry">
            <mxPoint x="640" y="250" as="sourcePoint" />
            <mxPoint x="640" y="110" as="targetPoint" />
          </mxGeometry>
        </mxCell>
        <mxCell id="MMdVLe4UEXJUQT5hQaAA-76" value="" style="endArrow=none;html=1;rounded=0;" edge="1" parent="1">
          <mxGeometry width="50" height="50" relative="1" as="geometry">
            <mxPoint x="800" y="250" as="sourcePoint" />
            <mxPoint x="800" y="110" as="targetPoint" />
          </mxGeometry>
        </mxCell>
        <mxCell id="MMdVLe4UEXJUQT5hQaAA-77" value="&lt;font style=&quot;font-size: 10px;&quot;&gt;Réception&lt;/font&gt;" style="rounded=0;whiteSpace=wrap;html=1;fillColor=#000066;" vertex="1" parent="1">
          <mxGeometry x="160" y="120" width="80" height="20" as="geometry" />
        </mxCell>
        <mxCell id="MMdVLe4UEXJUQT5hQaAA-78" value="&lt;font style=&quot;font-size: 10px;&quot;&gt;Contrôle, mesure &amp;amp; rapport&lt;/font&gt;" style="rounded=0;whiteSpace=wrap;html=1;fillColor=#000066;" vertex="1" parent="1">
          <mxGeometry x="240" y="140" width="160" height="20" as="geometry" />
        </mxCell>
        <mxCell id="MMdVLe4UEXJUQT5hQaAA-79" value="&lt;font style=&quot;font-size: 10px;&quot;&gt;Analyse &amp;amp; tests&lt;/font&gt;" style="rounded=0;whiteSpace=wrap;html=1;fillColor=#000066;" vertex="1" parent="1">
          <mxGeometry x="400" y="160" width="160" height="20" as="geometry" />
        </mxCell>
        <mxCell id="MMdVLe4UEXJUQT5hQaAA-80" value="&lt;font style=&quot;font-size: 10px;&quot;&gt;Stockage&lt;/font&gt;" style="rounded=0;whiteSpace=wrap;html=1;fillColor=#000066;" vertex="1" parent="1">
          <mxGeometry x="560" y="180" width="80" height="20" as="geometry" />
        </mxCell>
        <mxCell id="MMdVLe4UEXJUQT5hQaAA-84" value="&lt;font style=&quot;font-size: 10px;&quot;&gt;Production&lt;/font&gt;" style="rounded=0;whiteSpace=wrap;html=1;fillColor=#000066;" vertex="1" parent="1">
          <mxGeometry x="640" y="200" width="160" height="20" as="geometry" />
        </mxCell>
        <mxCell id="MMdVLe4UEXJUQT5hQaAA-86" value="" style="endArrow=none;html=1;rounded=0;" edge="1" parent="1">
          <mxGeometry width="50" height="50" relative="1" as="geometry">
            <mxPoint x="880" y="250" as="sourcePoint" />
            <mxPoint x="880" y="110" as="targetPoint" />
          </mxGeometry>
        </mxCell>
        <mxCell id="MMdVLe4UEXJUQT5hQaAA-88" value="" style="rounded=0;whiteSpace=wrap;html=1;" vertex="1" parent="1">
          <mxGeometry x="800" y="120" width="80" height="20" as="geometry" />
        </mxCell>
        <mxCell id="MMdVLe4UEXJUQT5hQaAA-89" value="" style="rounded=0;whiteSpace=wrap;html=1;fillColor=#282828;" vertex="1" parent="1">
          <mxGeometry x="800" y="140" width="80" height="20" as="geometry" />
        </mxCell>
        <mxCell id="MMdVLe4UEXJUQT5hQaAA-90" value="" style="rounded=0;whiteSpace=wrap;html=1;" vertex="1" parent="1">
          <mxGeometry x="800" y="160" width="80" height="20" as="geometry" />
        </mxCell>
        <mxCell id="MMdVLe4UEXJUQT5hQaAA-91" value="" style="rounded=0;whiteSpace=wrap;html=1;fillColor=#282828;" vertex="1" parent="1">
          <mxGeometry x="800" y="180" width="80" height="20" as="geometry" />
        </mxCell>
        <mxCell id="MMdVLe4UEXJUQT5hQaAA-94" value="" style="rounded=0;whiteSpace=wrap;html=1;fillColor=#282828;" vertex="1" parent="1">
          <mxGeometry x="800" y="220" width="80" height="20" as="geometry" />
        </mxCell>
        <mxCell id="MMdVLe4UEXJUQT5hQaAA-95" value="" style="rounded=0;whiteSpace=wrap;html=1;" vertex="1" parent="1">
          <mxGeometry x="800" y="200" width="80" height="20" as="geometry" />
        </mxCell>
        <mxCell id="MMdVLe4UEXJUQT5hQaAA-102" value="&lt;font style=&quot;font-size: 10px;&quot;&gt;Expédition&lt;/font&gt;" style="rounded=0;whiteSpace=wrap;html=1;fillColor=#000066;" vertex="1" parent="1">
          <mxGeometry x="800" y="220" width="80" height="20" as="geometry" />
        </mxCell>
        <mxCell id="MMdVLe4UEXJUQT5hQaAA-103" value="01/09" style="text;html=1;align=center;verticalAlign=middle;resizable=0;points=[];autosize=1;strokeColor=none;fillColor=none;" vertex="1" parent="1">
          <mxGeometry x="135" y="250" width="50" height="30" as="geometry" />
        </mxCell>
        <mxCell id="MMdVLe4UEXJUQT5hQaAA-104" value="02/09" style="text;html=1;align=center;verticalAlign=middle;resizable=0;points=[];autosize=1;strokeColor=none;fillColor=none;" vertex="1" parent="1">
          <mxGeometry x="210" y="250" width="50" height="30" as="geometry" />
        </mxCell>
        <mxCell id="MMdVLe4UEXJUQT5hQaAA-105" value="04/09" style="text;html=1;align=center;verticalAlign=middle;resizable=0;points=[];autosize=1;strokeColor=none;fillColor=none;" vertex="1" parent="1">
          <mxGeometry x="375" y="250" width="50" height="30" as="geometry" />
        </mxCell>
        <mxCell id="MMdVLe4UEXJUQT5hQaAA-106" value="03/09" style="text;html=1;align=center;verticalAlign=middle;resizable=0;points=[];autosize=1;strokeColor=none;fillColor=none;" vertex="1" parent="1">
          <mxGeometry x="295" y="250" width="50" height="30" as="geometry" />
        </mxCell>
        <mxCell id="MMdVLe4UEXJUQT5hQaAA-107" value="05/09" style="text;html=1;align=center;verticalAlign=middle;resizable=0;points=[];autosize=1;strokeColor=none;fillColor=none;" vertex="1" parent="1">
          <mxGeometry x="455" y="250" width="50" height="30" as="geometry" />
        </mxCell>
        <mxCell id="MMdVLe4UEXJUQT5hQaAA-108" value="06/09" style="text;html=1;align=center;verticalAlign=middle;resizable=0;points=[];autosize=1;strokeColor=none;fillColor=none;" vertex="1" parent="1">
          <mxGeometry x="535" y="250" width="50" height="30" as="geometry" />
        </mxCell>
        <mxCell id="MMdVLe4UEXJUQT5hQaAA-109" value="07/09" style="text;html=1;align=center;verticalAlign=middle;resizable=0;points=[];autosize=1;strokeColor=none;fillColor=none;" vertex="1" parent="1">
          <mxGeometry x="610" y="250" width="50" height="30" as="geometry" />
        </mxCell>
        <mxCell id="MMdVLe4UEXJUQT5hQaAA-111" value="08/09" style="text;html=1;align=center;verticalAlign=middle;resizable=0;points=[];autosize=1;strokeColor=none;fillColor=none;" vertex="1" parent="1">
          <mxGeometry x="695" y="250" width="50" height="30" as="geometry" />
        </mxCell>
        <mxCell id="MMdVLe4UEXJUQT5hQaAA-113" value="09/09" style="text;html=1;align=center;verticalAlign=middle;resizable=0;points=[];autosize=1;strokeColor=none;fillColor=none;" vertex="1" parent="1">
          <mxGeometry x="770" y="250" width="50" height="30" as="geometry" />
        </mxCell>
        <mxCell id="MMdVLe4UEXJUQT5hQaAA-114" value="10/09" style="text;html=1;align=center;verticalAlign=middle;resizable=0;points=[];autosize=1;strokeColor=none;fillColor=none;" vertex="1" parent="1">
          <mxGeometry x="850" y="250" width="50" height="30" as="geometry" />
        </mxCell>
      </root>
    </mxGraphModel>
  </diagram>
</mxfile>
